<?xml version="1.0" encoding="UTF-8" standalone="no"?>
<!-- Created with Inkscape (http://www.inkscape.org/) -->

<svg
   xmlns:dc="http://purl.org/dc/elements/1.1/"
   xmlns:cc="http://creativecommons.org/ns#"
   xmlns:rdf="http://www.w3.org/1999/02/22-rdf-syntax-ns#"
   xmlns:svg="http://www.w3.org/2000/svg"
   xmlns="http://www.w3.org/2000/svg"
   xmlns:sodipodi="http://sodipodi.sourceforge.net/DTD/sodipodi-0.dtd"
   xmlns:inkscape="http://www.inkscape.org/namespaces/inkscape"
   version="1.1"
   id="svg10"
   width="663"
   height="191"
   viewBox="0 0 663 191"
   sodipodi:docname="logo2.svg"
   inkscape:version="0.92.2 2405546, 2018-03-11">
  <metadata
     id="metadata16">
    <rdf:RDF>
      <cc:Work
         rdf:about="">
        <dc:format>image/svg+xml</dc:format>
        <dc:type
           rdf:resource="http://purl.org/dc/dcmitype/StillImage" />
        <dc:title></dc:title>
      </cc:Work>
    </rdf:RDF>
  </metadata>
  <defs
     id="defs14" />
  <sodipodi:namedview
     pagecolor="#ffffff"
     bordercolor="#666666"
     borderopacity="1"
     objecttolerance="10"
     gridtolerance="10"
     guidetolerance="10"
     inkscape:pageopacity="0"
     inkscape:pageshadow="2"
     inkscape:window-width="1920"
     inkscape:window-height="993"
     id="namedview12"
     showgrid="false"
     inkscape:zoom="2.5987934"
     inkscape:cx="300.24684"
     inkscape:cy="142.18014"
     inkscape:window-x="0"
     inkscape:window-y="0"
     inkscape:window-maximized="1"
     inkscape:current-layer="svg10" />
  <path
     style="fill:#000000"
     d="M 206.15438,96.384793 V 1.3847942 h 4 4 V 96.384793 191.38479 h -4 -4 z M 41.799328,188.86649 C 22.718771,184.03348 6.0664168,167.06158 2.0556917,148.36022 c -3.620236,-16.88058 3.0416651,-32.97543 13.6490303,-32.97543 4.455556,0 8.652604,5.37383 12.360831,15.82661 2.372657,6.68806 4.31205,10.32994 6.855272,12.87317 3.499031,3.49903 3.637263,3.54007 10.314115,3.06234 5.161925,-0.36933 7.471484,-1.051 9.734552,-2.87317 12.360801,-9.9526 14.290718,-31.60938 3.729067,-41.84613 -2.693595,-2.610737 -4.492894,-3.427567 -8.371049,-3.800207 -6.533283,-0.62776 -10.695836,0.87516 -17.79283,6.424257 -10.658638,8.33391 -15.644773,9.26865 -20.980298,3.93313 -3.1557772,-3.15578 -3.3993262,-3.85612 -3.3906162,-9.749997 0.01152,-7.79276 3.0565252,-13.698519 11.3274472,-21.969439 13.817265,-13.81727 35.181806,-18.53508 55.781275,-12.31787 1.996338,0.60252 2.256138,-0.0343 9.409517,-23.06269 6.350472,-20.44369 12.910977,-35.0083798 17.513635,-38.8812598 5.70326,-4.79898 12.77594,-3.03344005 16.35078,4.0816 2.10052,4.1806898 2.11628,18.2158998 0.0514,45.7578598 -0.85612,11.41908 -1.39517,20.92338 -1.19788,21.12066 0.19729,0.19729 10.68525,-3.08406 23.30659,-7.29188 21.34558,-7.1164 23.55653,-7.65535 31.66492,-7.71878 7.78847,-0.0609 8.96023,0.17458 11,2.21095 3.65651,3.6504 3.09939,10.80489 -1.28837,16.54529 -4.92899,6.44847 -11.50049,10.880769 -32.87839,22.175559 -10.40997,5.499997 -19.15311,10.235697 -19.42919,10.523767 -0.27608,0.28808 6.73192,5.01308 15.57334,10.5 8.84143,5.48693 18.2322,11.90128 20.86838,14.25411 8.40311,7.4999 9.95656,16.87869 3.58378,21.63666 -5.68823,4.24688 -17.60817,2.22518 -40.86564,-6.93109 -7.66059,-3.0159 -14.28221,-5.48345 -14.71474,-5.48345 -0.43254,0 -1.04041,2.46075 -1.35082,5.46833 -1.55119,15.0296 -16.293897,30.41081 -35.49715,37.03451 -9.74927,3.36278 -26.443381,4.29144 -35.573322,1.97886 z m 31.775147,-8.40763 c 19.584638,-6.89219 30.599845,-20.37801 33.119975,-40.54852 0.39062,-3.1264 1.24846,-5.89091 1.9063,-6.14334 0.65785,-0.25244 4.31403,0.94817 8.12486,2.66803 30.76449,13.88428 48.39343,18.22736 49.25681,12.13495 0.50074,-3.53338 -7.44655,-10.68176 -21.32804,-19.18401 -24.10591,-14.76458 -27.5,-17.12344 -27.5,-19.11217 0,-2.40171 1.49669,-3.30481 28.17268,-16.999297 15.19546,-7.800799 23.16728,-12.510279 26.6736,-15.757839 5.32569,-4.93267 7.43797,-9.66195 5.03907,-11.28224 -3.29671,-2.2267 -19.33581,2.10839 -43.77171,11.83073 -9.89697,3.93772 -18.23079,6.65245 -20.61364,6.71487 -3.971,0.10401 -4.00214,0.0758 -4.29455,-3.89523 -0.162,-2.2 0.8505,-15.80944 2.25,-30.2432 2.8403,-29.29337 3.07406,-36.00054 1.38403,-39.70975 -2.69072,-5.9054898 -7.89186,-1.1729598 -12.806837,11.65296 -1.749338,4.56499 -6.137067,17.97499 -9.75051,29.79999 -3.613443,11.825 -6.922654,21.89501 -7.353804,22.37779 -0.43795,0.4904 -4.093673,-0.32935 -8.283522,-1.85747 -6.934433,-2.52913 -8.390579,-2.7052 -19.322209,-2.33634 -10.278437,0.34682 -12.540955,0.74676 -17.322596,3.06212 -12.448852,6.02797 -23.05648,19.308839 -21.604422,27.048976 0.886024,4.72291 3.685089,4.94391 9.205747,0.72683 12.866907,-9.828677 12.106859,-9.494357 22.398675,-9.852457 9.256173,-0.32207 9.608586,-0.25169 13.73072,2.7423 15.592542,11.325187 16.257164,39.472067 1.263208,53.497157 -6.99879,6.54655 -15.816285,8.87854 -24.478183,6.47383 -7.504809,-2.08349 -12.162435,-7.55354 -15.974188,-18.76056 -2.666717,-7.84047 -5.247663,-13.12218 -6.41225,-13.12218 -2.948342,0 -7.1293072,10.00104 -7.1293072,17.0536 0,12.7897 12.4884782,33.07366 23.9688342,38.9305 10.564481,5.3896 29.379468,6.33825 41.451259,2.08997 z M 247.55064,141.00309 c -7.16176,-3.22757 -10.27014,-13.11593 -6.54312,-20.81493 5.03635,-10.4037 18.18608,-10.55098 23.1681,-0.25949 2.44212,5.04475 2.51867,9.89119 0.22721,14.38504 -3.34354,6.55708 -10.68205,9.47006 -16.85219,6.68938 z m 8.75414,-1.69879 c 5.91928,-3.1679 6.51884,-20.88542 0.81016,-23.94062 -5.27299,-2.82202 -11.13166,0.12661 -12.34941,6.21537 -2.52869,12.64342 3.55974,21.99575 11.53925,17.72525 z m 58.8496,2.08801 c -0.825,-0.52903 -2.2875,-0.71681 -3.25,-0.4173 -1.4414,0.44853 -1.75,-0.0845 -1.75,-3.02283 0,-4.0324 1.04829,-4.6161 2.51287,-1.39919 1.38748,3.04757 3.73632,4.23706 6.83235,3.46 4.37457,-1.09794 3.48478,-4.31109 -1.59522,-5.76058 -7.44902,-2.12545 -9.36182,-5.12141 -6.17484,-9.67147 1.32702,-1.89458 2.35034,-2.20533 6.49572,-1.97251 4.91014,0.27577 4.9205,0.28377 4.89316,3.77636 l -0.0274,3.5 -2.05173,-2.75 c -2.22208,-2.97833 -5.90669,-3.63361 -7.7748,-1.38268 -1.49278,1.7987 0.0747,3.08556 5.53707,4.54576 2.28094,0.60975 4.41844,1.81555 4.75,2.67956 2.33164,6.07616 -3.27792,11.69754 -8.39718,8.41488 z m 22.75,-0.0876 c -2.18884,-1.27488 -2.26833,-5.25872 -0.14725,-7.37979 0.88151,-0.88151 3.60187,-2.13743 6.04524,-2.79093 3.91373,-1.04677 4.40735,-1.48938 4.14725,-3.71868 -0.25307,-2.16912 -0.79511,-2.53052 -3.79524,-2.53052 -3.05566,0 -3.46028,0.28565 -3.18714,2.25 0.23739,1.7073 -0.18471,2.25 -1.75,2.25 -2.812,0 -2.71133,-3.43238 0.15965,-5.4433 3.12164,-2.18648 8.36331,-1.97088 10.77749,0.4433 1.58974,1.58974 2,3.33333 2,8.5 0,5.22047 0.30689,6.5 1.55902,6.5 0.85746,0 1.2809,0.45 0.94098,1 -0.86341,1.39703 -5.24894,1.25318 -5.72931,-0.18793 -0.28083,-0.84249 -1.09676,-0.69709 -2.80584,0.5 -2.71415,1.90106 -5.62476,2.11642 -8.21485,0.60783 z m 8.22685,-2.70007 c 1.48598,-1.20328 2.089,-2.62603 1.86078,-4.39029 -0.32469,-2.51009 -0.47176,-2.56641 -3.83763,-1.46983 -3.75759,1.22421 -5.39983,5.13774 -2.83749,6.76189 1.88079,1.19215 2.33308,1.10744 4.81434,-0.90177 z m 54.24566,2.22347 c -1.22238,-0.85621 -2.22251,-2.39855 -2.22251,-3.42744 0,-2.46821 4.35014,-5.80334 8.61249,-6.60296 4.05811,-0.76131 4.41696,-1.21367 3.30232,-4.16292 -0.62947,-1.66553 -1.65435,-2.25 -3.94544,-2.25 -2.63575,0 -3.04866,0.33392 -2.78223,2.25 0.23076,1.65954 -0.19012,2.25 -1.60381,2.25 -2.74643,0 -3.04333,-2.04 -0.64583,-4.4375 2.47626,-2.47626 7.6801,-2.71907 10.83999,-0.5058 1.91126,1.3387 2.22251,2.47218 2.22251,8.09362 0,5.68359 0.25961,6.60481 1.98875,7.05699 1.09382,0.28604 1.74226,0.91891 1.44099,1.40638 -0.74573,1.20662 -5.16444,1.1246 -5.92747,-0.11002 -0.3884,-0.62844 -1.68424,-0.44381 -3.50936,0.5 -3.65409,1.8896 -5.00137,1.87913 -7.7704,-0.0604 z m 7.98147,-2.1933 c 0.83268,-0.9625 1.7603,-2.7625 2.06137,-4 0.44123,-1.81359 0.12382,-2.25 -1.63646,-2.25 -2.63008,0 -6.62889,2.62814 -6.62889,4.3567 0,1.55855 2.02851,3.6433 3.54501,3.6433 0.62976,0 1.8263,-0.7875 2.65897,-1.75 z m 83.04503,2.71847 c -5.68956,-2.28684 -6.6795,-12.91149 -1.57697,-16.92514 7.4894,-5.89116 16.3385,3.42029 11.96547,12.59064 -0.89475,1.87631 -2.78352,3.85124 -4.19726,4.38875 -2.99988,1.14055 -3.22351,1.13859 -6.19124,-0.0542 z m 6.19429,-3.19098 c 1.76777,-2.52384 2.02187,-7.4238 0.58145,-11.21239 -0.69489,-1.82772 -1.70816,-2.56512 -3.52475,-2.56512 -2.88334,0 -4.5,2.99714 -4.5,8.34259 0,3.59577 2.38689,7.65741 4.5,7.65741 0.76263,0 2.08711,-1.00013 2.9433,-2.22251 z m 68.3067,3.14239 c -1.43445,-0.83549 -1.75,-2.45283 -1.75,-8.96959 0,-7.45105 -0.13406,-7.95031 -2.13486,-7.95031 -2.04957,0 -2.03409,-0.0793 0.38762,-1.98418 1.38737,-1.09131 2.88182,-3.22881 3.32101,-4.75 0.77429,-2.68187 0.81564,-2.64458 1.36238,1.2283 0.48674,3.44793 0.97409,4.08131 3.56385,4.63169 l 3,0.63756 -3.29381,0.11832 -3.29381,0.11831 0.29381,7.2394 c 0.23745,5.85069 0.61724,7.30109 1.9799,7.56101 1.02313,0.19516 2.28528,-0.78366 3.20997,-2.48939 l 1.52386,-2.81102 0.04,2.6933 c 0.025,1.68145 -0.79493,3.27813 -2.18247,4.25 -2.57115,1.8009 -3.61244,1.88324 -6.02749,0.4766 z m 24.25,0.0876 c -0.825,-0.52903 -2.2875,-0.71681 -3.25,-0.4173 -1.4414,0.44853 -1.75,-0.0845 -1.75,-3.02283 0,-4.15113 1.19966,-4.61936 2.80548,-1.09498 1.97845,4.34224 9.66596,4.71195 9.01466,0.43354 -0.23291,-1.52998 -1.68251,-2.55297 -5.32014,-3.75447 -4.68668,-1.54799 -5.0192,-1.88237 -5.30647,-5.33608 -0.37813,-4.54624 1.75379,-5.99548 7.99714,-5.43632 4.4172,0.39561 5.67658,1.91852 4.38022,5.29679 -0.48573,1.26579 -0.99372,1.05631 -2.7006,-1.11364 -2.55483,-3.24795 -7.37029,-3.31734 -7.37029,-0.1062 0,1.45967 1.1419,2.28474 4.5,3.25142 7.15359,2.05929 8.7876,5.59586 4.54545,9.838 -2.58449,2.5845 -5.05002,3.06223 -7.54545,1.46207 z m 54.75,-0.0876 c -1.05111,-0.61221 -1.75,-2.21706 -1.75,-4.01848 0,-2.5592 0.62351,-3.28223 4.25,-4.92835 2.3375,-1.06103 5.06739,-1.93903 6.06642,-1.95111 1.38771,-0.0168 1.74174,-0.67102 1.5,-2.77196 -0.27798,-2.41592 -0.74161,-2.75 -3.81642,-2.75 -3.05566,0 -3.46028,0.28565 -3.18714,2.25 0.23739,1.7073 -0.18471,2.25 -1.75,2.25 -2.812,0 -2.71133,-3.43238 0.15965,-5.4433 2.75773,-1.93159 7.77218,-2.01229 10.29751,-0.16572 1.47954,1.08187 1.99155,2.97082 2.30398,8.5 0.30228,5.34968 0.75959,7.10902 1.84786,7.10902 0.7954,0 1.16806,0.45 0.82814,1 -0.82247,1.33079 -5.23861,1.28418 -5.68667,-0.06 -0.22798,-0.68394 -1.41058,-0.50874 -3.33334,0.49384 -3.44492,1.79629 -5.28215,1.91182 -7.72999,0.48608 z m 8.22685,-2.70007 c 1.48598,-1.20328 2.089,-2.62603 1.86078,-4.39029 -0.32469,-2.51009 -0.47176,-2.56641 -3.83763,-1.46983 -3.75759,1.22421 -5.39983,5.13774 -2.83749,6.76189 1.88079,1.19215 2.33308,1.10744 4.81434,-0.90177 z m -374.72685,2.09084 c 1.55283,-0.40579 1.75,-1.91376 1.75,-13.38399 0,-10.82372 -0.24403,-12.92668 -1.5,-12.92668 -0.825,0 -1.5,-0.45 -1.5,-1 0,-0.55 1.575,-1 3.5,-1 h 3.5 v 9.68709 9.68709 l 3,-2.87418 c 3.45729,-3.31229 3.68152,-4.17525 1.25,-4.81067 -0.9625,-0.25153 0.725,-0.49584 3.75,-0.54292 4.52997,-0.0705 5.14726,0.1095 3.5,1.02057 -1.1,0.60839 -2.99285,2.00468 -4.20633,3.10288 l -2.20634,1.99672 2.97376,4.32221 c 1.63557,2.37722 3.96605,5.01724 5.17884,5.86671 2.10252,1.47266 1.95054,1.54379 -3.26742,1.52919 -3.5559,-0.01 -4.98415,-0.32455 -4.07808,-0.89828 1.15112,-0.7289 1.00101,-1.51952 -0.86034,-4.53124 -2.58136,-4.17675 -4.38382,-4.18687 -4.86988,-0.0274 -0.22096,1.89095 0.27183,3.31786 1.44113,4.17288 1.53258,1.12064 1.02871,1.28336 -3.66421,1.18331 -2.99262,-0.0638 -4.65363,-0.3218 -3.69113,-0.57333 z m 88,0 c 1.46852,-0.38376 1.75,-1.65185 1.75,-7.88399 0,-5.93483 -0.30132,-7.42668 -1.5,-7.42668 -0.825,0 -1.5,-0.45 -1.5,-1 0,-0.55 1.575,-1 3.5,-1 1.925,0 3.5,0.47552 3.5,1.0567 0,0.5923 0.97677,0.37255 2.22251,-0.5 5.91885,-4.14572 9.77749,-0.70348 9.77749,8.72235 0,5.25129 0.36215,6.8325 1.75,7.64085 1.35601,0.78981 0.62432,1.01928 -3.25,1.01928 -3.87432,0 -4.60601,-0.22947 -3.25,-1.01928 3.50453,-2.0412 1.49358,-15.9199 -2.3067,-15.9199 -0.51882,0 -1.8433,0.9 -2.9433,2 -2.70738,2.70738 -2.88123,12.38735 -0.25,13.9199 1.33186,0.77574 0.43584,0.99883 -3.75,0.93369 -3.025,-0.0471 -4.7125,-0.29139 -3.75,-0.54292 z m 80.75,-0.31067 c 0,-0.55 0.9,-1 2,-1 1.89333,0 2,-0.66667 2,-12.5 0,-11.83333 -0.10667,-12.5 -2,-12.5 -1.1,0 -2,-0.45 -2,-1 0,-0.5641 2.83333,-1 6.5,-1 3.66667,0 6.5,0.4359 6.5,1 0,0.55 -0.84375,1 -1.875,1 -1.3,0 -2.06667,0.95833 -2.5,3.125 -0.87003,4.35013 -0.78098,9.875 0.15916,9.875 0.43129,0 3.24379,-2.50235 6.25,-5.56077 4.99849,-5.08531 5.31621,-5.67188 3.71584,-6.86024 -0.9625,-0.71471 -1.75,-1.58737 -1.75,-1.93923 0,-1.05855 10.83287,-0.7192 11.5,0.36024 0.33992,0.55 -0.1028,1 -0.98382,1 -0.88103,0 -3.81552,2.07061 -6.52109,4.60137 l -4.91924,4.60136 5.07579,7.52199 c 2.79168,4.1371 5.92462,7.74397 6.96207,8.01527 4.03683,1.05565 1.57819,2.26001 -4.61371,2.26001 -6.03177,0 -9.03906,-1.45185 -4.51647,-2.18045 1.8236,-0.29378 1.6825,-0.78201 -1.75,-6.05509 -2.05344,-3.15455 -4.15615,-5.60118 -4.67268,-5.43695 -0.51654,0.16422 -1.80164,1.45379 -2.85578,2.8657 -2.44929,3.28055 -1.58686,8.80679 1.37439,8.80679 1.05629,0 1.92054,0.45 1.92054,1 0,0.5641 -2.83333,1 -6.5,1 -3.66667,0 -6.5,-0.4359 -6.5,-1 z m 67,0.08 c 0,-0.506 2.26814,-4.21246 5.0403,-8.23657 2.77217,-4.02411 4.55286,-7.47904 3.95709,-7.67763 -2.17704,-0.72568 -5.88064,0.89099 -6.49813,2.83652 -0.98851,3.11452 -2.82566,2.43431 -2.02638,-0.75027 0.37933,-1.51137 0.82488,-2.88315 0.99012,-3.04839 0.16524,-0.16524 3.31034,-0.16616 6.98911,-0.002 l 6.68868,0.29839 -5.07039,7.21291 c -5.32565,7.57597 -5.99546,9.28704 -3.6355,9.28704 2.78281,0 6.5651,-1.96816 6.5651,-3.41623 0,-0.80616 0.45,-1.74385 1,-2.08377 0.59512,-0.3678 1,0.82295 1,2.94098 v 3.55902 h -7.5 c -4.125,0 -7.5,-0.414 -7.5,-0.92 z m 27,0.19111 c 2.35626,-0.89695 2.96823,-2.42228 2.98469,-7.43932 0.0184,-5.60031 -0.72007,-7.83179 -2.59168,-7.83179 -0.76615,0 -1.39301,-0.45 -1.39301,-1 0,-0.55 1.575,-1 3.5,-1 h 3.5 v 7.95031 c 0,6.51676 0.31555,8.1341 1.75,8.96959 1.33579,0.77803 0.4482,1.00779 -3.75,0.97074 -3.025,-0.0267 -4.825,-0.30548 -4,-0.61953 z m 70.25,0.0396 c 1.55283,-0.40583 1.75,-1.9138 1.75,-13.38403 0,-10.82372 -0.24403,-12.92668 -1.5,-12.92668 -0.825,0 -1.5,-0.45 -1.5,-1 0,-0.55 1.575,-1 3.5,-1 h 3.5 v 9.68709 9.68709 l 3,-2.87418 c 3.45729,-3.31229 3.68152,-4.17525 1.25,-4.81067 -0.9625,-0.25153 0.725,-0.49584 3.75,-0.54292 4.52997,-0.0705 5.14726,0.1095 3.5,1.02057 -1.1,0.60839 -2.99285,2.00468 -4.20633,3.10288 l -2.20634,1.99672 2.89028,4.20088 c 1.58966,2.31049 3.93251,4.9269 5.20634,5.81426 2.25493,1.5708 2.1709,1.61436 -3.18395,1.65052 -3.55457,0.024 -5.00677,-0.27518 -4.10557,-0.84583 1.15112,-0.7289 1.00101,-1.51952 -0.86034,-4.53124 -2.58136,-4.17675 -4.38382,-4.18687 -4.86988,-0.0274 -0.22096,1.89095 0.27183,3.31786 1.44113,4.17288 1.53258,1.12064 1.02871,1.28336 -3.66421,1.18331 -2.99262,-0.0638 -4.65363,-0.3218 -3.69113,-0.57333 z m -67.75,-24.31071 c -0.83704,-1.35436 0.29243,-3 2.05902,-3 0.79254,0 1.44098,0.9 1.44098,2 0,2.07031 -2.41251,2.7596 -3.5,1 z M 308.64124,96.005083 c -0.85759,-1.30884 -2.01383,-5.20243 -2.56944,-8.652409 -0.5556,-3.44998 -1.46667,-7.12565 -2.0246,-8.16815 -1.19989,-2.24202 -4.87223,-3.79973 -8.95792,-3.79973 h -2.9349 v 9.38871 9.388709 l 3.5,0.6566 c 6.89594,1.29369 3.42513,2.56598 -7,2.56598 -10.42513,0 -13.89594,-1.27229 -7,-2.56598 l 3.5,-0.6566 V 74.880494 c 0,-20.6161 0.0299,-20.4957 -5.08179,-20.4957 -1.10338,0 -1.91821,-0.68974 -1.91821,-1.62375 0,-1.44488 1.62488,-1.57517 14.75,-1.18277 11.21279,0.33523 15.51483,0.84316 17.9393,2.11804 9.39614,4.94086 8.34508,15.61423 -1.92634,19.56165 -2.89463,1.11244 -4.51546,2.04607 -3.60185,2.07472 2.73973,0.0859 6.35632,5.37207 7.80397,11.40655 1.49676,6.239209 3.14395,8.440629 4.79463,6.407889 0.56379,-0.69428 1.186,-2.12504 1.38268,-3.17946 0.19669,-1.05443 0.98879,-2.12732 1.76023,-2.384209 1.96587,-0.65464 0.76805,6.402779 -1.51486,8.925369 -2.56931,2.83905 -8.90238,2.54639 -10.9009,-0.50374 z m -2.12172,-25.692869 c 2.18889,-1.72178 2.63486,-2.88035 2.63486,-6.84501 0,-6.69889 -2.25668,-8.56917 -10.34867,-8.57669 l -6.15133,-0.006 -0.28893,8.75 -0.28894,8.75 h 5.90408 c 4.4588,0 6.54907,-0.50735 8.53893,-2.07258 z m 129.403,26.013799 c -6.10723,-3.22456 -6.76814,-5.59595 -6.76814,-24.284569 0,-17.53137 -0.0361,-17.65665 -5.08179,-17.65665 -1.05501,0 -1.91821,-0.675 -1.91821,-1.5 0,-1.2381 1.83333,-1.5 10.5,-1.5 8.66667,0 10.5,0.2619 10.5,1.5 0,0.825 -0.8632,1.5 -1.91821,1.5 -5.04397,0 -5.08179,0.1309 -5.08179,17.59121 v 16.377239 l 2.80939,3.14425 c 5.36799,6.00782 17.1018,4.82729 20.67368,-2.07997 1.76479,-3.412719 2.19762,-28.892339 0.54331,-31.983439 -0.53549,-1.00058 -2.11049,-2.10457 -3.5,-2.45331 -1.38951,-0.34875 -2.52638,-1.30051 -2.52638,-2.11503 0,-1.19823 1.71813,-1.48095 9,-1.48095 7.05427,0 9,0.30314 9,1.40217 0,0.7712 -1.33417,1.86727 -2.96481,2.43572 -3.6419,1.26957 -3.82909,2.08412 -4.31634,18.78207 -0.42898,14.700699 -1.58054,18.022419 -7.6708,22.126639 -4.49164,3.02692 -15.72111,3.12962 -21.27991,0.19462 z m 118.73186,0.6375 c -4.04941,-1.81277 -9.04602,-7.23336 -11.01182,-11.946189 -2.07831,-4.98257 -2.07925,-15.27894 -0.002,-20.26507 4.16191,-9.98931 14.76818,-15.70537 24.71431,-13.31933 9.97042,2.39187 16.73658,11.3997 16.7774,22.33585 0.0404,10.81735 -4.09199,18.592859 -12.03493,22.645039 -4.549,2.32073 -13.8666,2.59844 -18.44311,0.5497 z m 15.28418,-2.84379 c 4.3065,-2.09176 6.43463,-7.155309 6.96131,-16.563339 0.29067,-5.19225 0.005,-10.44024 -0.71112,-13.07961 -3.46346,-12.75907 -17.9663,-14.66769 -23.78437,-3.13009 -4.33445,8.59548 -2.56338,27.231319 3.02759,31.857489 3.65711,3.02603 9.41359,3.38933 14.50659,0.91555 z m 45.21582,-14.234929 c -7.425,-10.14449 -13.88655,-18.45701 -14.35899,-18.47227 -0.47245,-0.0153 -0.69601,6.65484 -0.4968,14.82244 0.38024,15.589779 0.97557,17.730599 5.10008,18.339799 1.15448,0.17051 2.2843,0.87253 2.51072,1.56003 0.30906,0.93847 -1.85212,1.25 -8.67168,1.25 -7.4074,0 -9.08333,-0.27676 -9.08333,-1.5 0,-0.8275 0.88633,-1.5 1.97695,-1.5 4.3179,0 5.09274,-3.49034 4.79785,-21.612329 l -0.2748,-16.88767 -3.25,-0.9568 c -5.61937,-1.65433 -4.00769,-3.5432 3.02325,-3.5432 h 6.27325 l 12.47675,16.6967 12.47675,16.69669 0.2896,-11.94669 c 0.35401,-14.60385 -0.01,-16.27891 -3.82479,-17.60881 -1.63064,-0.56845 -2.96481,-1.66452 -2.96481,-2.43572 0,-1.09903 1.94573,-1.40217 9,-1.40217 7.28187,0 9,0.28272 9,1.48095 0,0.81452 -1.13687,1.76628 -2.52638,2.11503 -1.38951,0.34874 -2.96451,1.45273 -3.5,2.45331 -0.53633,1.00215 -0.97362,10.60687 -0.97362,21.38497 0,17.977939 -0.14202,19.563489 -1.75,19.537999 -1.10016,-0.0174 -6.76307,-6.8769 -15.25,-18.472259 z m -372,16.676359 c 0,-0.45299 1.6875,-1.24049 3.75,-1.75 l 3.75,-0.92636 V 74.993784 c 0,-21.20387 -0.31219,-22.17207 -6.34364,-19.67376 -3.25496,1.34825 -7.15636,7.82509 -7.15636,11.88049 0,1.36027 -0.62042,2.18428 -1.6446,2.18428 -1.42668,0 -1.56013,-0.89447 -1.00711,-6.75 0.35062,-3.7125 0.64069,-7.7625 0.6446,-9 l 0.007,-2.25 h 18.86408 18.86407 l 0.63593,4.63957 c 1.13083,8.25031 0.80033,13.36043 -0.86408,13.36043 -0.88238,0 -1.50904,-0.92643 -1.52196,-2.25 -0.042,-4.30138 -3.57114,-10.33881 -6.83337,-11.69008 -6.03701,-2.50061 -6.14467,-2.1625 -6.14467,19.2974 v 19.420099 l 3.5,0.6566 c 7.01797,1.31658 3.36615,2.56598 -7.5,2.56598 -6.05,0 -11,-0.37064 -11,-0.82364 z m 81,-0.20111 c 0,-0.56361 1.08129,-1.43586 2.40286,-1.93832 1.32157,-0.50246 2.78407,-1.49762 3.25,-2.21146 0.46593,-0.71384 4.45352,-10.304099 8.86131,-21.311679 4.72505,-11.79985 8.55352,-20.01379 9.32833,-20.01379 0.77331,0 4.90465,8.82129 10.03846,21.43421 7.70367,18.926659 9.03987,21.539399 11.42167,22.333329 5.23051,1.74351 2.58748,2.73246 -7.30263,2.73246 -9.71627,0 -13.08886,-1.13223 -7,-2.35 3.56647,-0.7133 3.76796,-2.36139 1.02693,-8.399999 l -1.92915,-4.25 h -8.09991 -8.09992 l -1.44898,3.46788 c -2.25208,5.389989 -1.87749,7.486779 1.55103,8.681959 5.2389,1.8263 3.26313,2.85016 -5.5,2.85016 -5.13687,0 -8.5,-0.40546 -8.5,-1.02475 z m 28.83333,-17.802779 c -0.18333,-0.45515 -1.67482,-4.28015 -3.31442,-8.5 -1.63961,-4.21986 -3.22311,-7.67247 -3.51891,-7.67247 -0.2958,0 -1.8793,3.45261 -3.51891,7.67247 -1.6396,4.21985 -3.13109,8.04485 -3.31442,8.5 -0.18334,0.45514 2.89166,0.82753 6.83333,0.82753 3.94167,0 7.01667,-0.37239 6.83333,-0.82753 z m 20.16667,17.872839 c 0,-0.52508 1.575,-1.25016 3.5,-1.61129 l 3.5,-0.6566 V 74.880494 c 0,-20.6161 0.0299,-20.4957 -5.08179,-20.4957 -1.10922,0 -1.91821,-0.68992 -1.91821,-1.63588 0,-1.4639 1.55059,-1.58158 14.75,-1.11944 16.15041,0.56546 19.13036,1.31565 24.04051,6.05208 6.35155,6.12685 8.01004,20.29542 3.42683,29.27563 -4.49887,8.814979 -8.7804,10.427609 -27.68522,10.427609 -8.56158,0 -14.53212,-0.39223 -14.53212,-0.95469 z m 30.76453,-3.62668 c 3.88794,-2.54747 5.53863,-7.872369 5.55468,-17.918629 0.0187,-11.70158 -2.16407,-16.51153 -8.61014,-18.97331 -2.43528,-0.93004 -6.29331,-1.52039 -8.77716,-1.34308 l -4.43191,0.31639 -0.27221,19.42725 c -0.20804,14.846919 0.0277,19.633439 1,20.301779 1.86867,1.28452 12.74806,0.0168 15.53674,-1.8104 z m 71.23547,3.51191 c 0,-0.5882 5.625,-9.861789 12.5,-20.607979 6.875,-10.7462 12.5,-20.00041 12.5,-20.56492 0,-0.65449 -2.60842,-0.83974 -7.19902,-0.51129 -6.18823,0.44277 -7.51584,0.88341 -9.45543,3.13831 -1.24102,1.44278 -2.55154,4.19645 -2.91227,6.11928 -0.37549,2.00157 -1.24951,3.49606 -2.04457,3.49606 -1.51789,0 -1.85574,-5.54134 -0.74686,-12.25 l 0.61983,-3.75 h 15.31015 c 8.42057,0 15.55551,0.39702 15.85541,0.88227 0.2999,0.48525 -4.01925,8.02275 -9.59811,16.75 -5.57886,8.72725 -11.42267,17.86833 -12.98626,20.313509 -1.56358,2.44518 -2.84287,4.80768 -2.84287,5.25 0,1.08538 8.54584,0.97758 13.5,-0.17028 4.77433,-1.10621 7.15459,-3.76813 8.6383,-9.660479 0.69307,-2.7524 1.65965,-4.36502 2.61634,-4.36502 1.22964,0 1.39668,0.87936 0.88128,4.63957 -0.34975,2.55176 -0.63592,6.376759 -0.63592,8.499999 v 3.86043 h -17 c -11.40271,0 -17,-0.35212 -17,-1.06946 z m 40,0.11477 c 0,-0.52508 1.575,-1.25016 3.5,-1.61129 l 3.5,-0.6566 V 74.880494 c 0,-20.6161 0.0299,-20.4957 -5.08179,-20.4957 -1.05501,0 -1.91821,-0.675 -1.91821,-1.5 0,-1.2381 1.83333,-1.5 10.5,-1.5 8.66667,0 10.5,0.2619 10.5,1.5 0,0.825 -0.8632,1.5 -1.91821,1.5 -5.11164,0 -5.08179,-0.1204 -5.08179,20.4957 v 19.281719 l 3.5,0.6566 c 6.89594,1.29369 3.42513,2.56598 -7,2.56598 -6.00109,0 -10.5,-0.40905 -10.5,-0.95469 z m 128,0 c 0,-0.52508 1.575,-1.25016 3.5,-1.61129 l 3.5,-0.6566 V 74.880494 c 0,-20.6161 0.0299,-20.4957 -5.08179,-20.4957 -1.05501,0 -1.91821,-0.675 -1.91821,-1.5 0,-1.2381 1.83333,-1.5 10.5,-1.5 8.66667,0 10.5,0.2619 10.5,1.5 0,0.825 -0.8632,1.5 -1.91821,1.5 -5.11164,0 -5.08179,-0.1204 -5.08179,20.4957 v 19.281719 l 3.5,0.6566 c 6.89594,1.29369 3.42513,2.56598 -7,2.56598 -6.00109,0 -10.5,-0.40905 -10.5,-0.95469 z"
     id="path20"
     inkscape:connector-curvature="0" />
</svg>
